<?xml version="1.0" encoding="utf-8"?>
<!-- Generator: Adobe Illustrator 27.2.0, SVG Export Plug-In . SVG Version: 6.00 Build 0)  -->
<svg version="1.1" id="Layer_1" xmlns="http://www.w3.org/2000/svg" xmlns:xlink="http://www.w3.org/1999/xlink" x="0px" y="0px"
	 viewBox="0 0 24 24" style="enable-background:new 0 0 24 24;" xml:space="preserve">
<style type="text/css">
	.st0{fill:none;}
</style>
<g id="Group_88170" transform="translate(-1290 -1204)">
	<g id="heart-o-bk" transform="translate(1302 1216)">
		<g id="Group_87972" transform="translate(-12 -12)">
			<g id="heart-o-bk-2" transform="translate(0.087 2.565)">
				<g id="Group_87971">
					<path id="Path_75057" d="M17.4,1c0.8,0,1.5,0.2,2.2,0.5c2.8,1.4,3.9,4.7,2.6,7.5c-1.7,3.6-8.3,7.6-10.3,8.7
						C10,16.6,3.3,12.6,1.6,9C0.3,6.2,1.5,2.9,4.2,1.5C4.9,1.2,5.7,1,6.5,1C8.3,1,10,2,11,3.6l0.9,1.5l0.9-1.5C13.8,2,15.5,1,17.4,1
						 M17.4,0c-2.2,0-4.3,1.2-5.5,3.1c-1.7-2.8-5.2-3.8-8.2-2.5C0.5,2.2-0.9,6.1,0.6,9.3c2.1,4.6,11.3,9.5,11.3,9.5
						s9.2-4.9,11.3-9.5c1.5-3.3,0.1-7.2-3.1-8.7C19.3,0.2,18.3,0,17.4,0L17.4,0z"/>
				</g>
			</g>
			<rect id="Rectangle_26194" y="0" class="st0" width="24" height="24"/>
		</g>
	</g>
</g>
</svg>
