<svg xmlns="http://www.w3.org/2000/svg" width="14" height="14" viewBox="0 0 14 14">
  <g id="settings-f" transform="translate(10.998 11.015)">
    <g id="Group_85616" data-name="Group 85616" transform="translate(-12 -12)">
      <g id="settings-f-2" data-name="settings-f" transform="translate(1.002 0.985)">
        <path id="Path_71785" data-name="Path 71785" d="M14.6,6.511l-1.387-.28a5.422,5.422,0,0,0-.28-.662l.789-1.177a.492.492,0,0,0-.064-.63L12.245,2.349a.493.493,0,0,0-.63-.064l-1.177.783a5.078,5.078,0,0,0-.668-.274l-.28-1.387A.5.5,0,0,0,9,1H7a.5.5,0,0,0-.49.407l-.28,1.387a5.376,5.376,0,0,0-.662.274L4.392,2.285a.5.5,0,0,0-.636.064L2.349,3.762a.492.492,0,0,0-.064.63l.783,1.177a5.376,5.376,0,0,0-.274.662L1.4,6.511A.509.509,0,0,0,1,7v2a.509.509,0,0,0,.4.49l1.394.274a5.078,5.078,0,0,0,.274.668l-.783,1.177a.493.493,0,0,0,.064.63l1.406,1.413a.5.5,0,0,0,.636.064l1.177-.789a5.422,5.422,0,0,0,.662.28l.28,1.387A.5.5,0,0,0,7,15H9a.493.493,0,0,0,.49-.4l.28-1.387a6.129,6.129,0,0,0,.668-.274l1.177.783a.493.493,0,0,0,.63-.064l1.413-1.413a.493.493,0,0,0,.064-.63l-.789-1.177a5.112,5.112,0,0,0,.28-.668L14.6,9.5a.5.5,0,0,0,.4-.49V7A.5.5,0,0,0,14.6,6.511ZM8,10.227A2.227,2.227,0,1,1,10.227,8,2.226,2.226,0,0,1,8,10.227Z" transform="translate(-1 -1)"/>
      </g>
    </g>
  </g>
</svg>
