<svg xmlns="http://www.w3.org/2000/svg" width="15.999" height="14.691" viewBox="0 0 15.999 14.691">
  <g id="Group_100524" data-name="Group 100524" transform="translate(-3733.49 13126.191)">
    <g id="Group_86706" data-name="Group 86706" transform="translate(3733.99 -13123.368)">
      <g id="Group_86576" data-name="Group 86576" transform="translate(0 0)">
        <path id="Path_73468" data-name="Path 73468" d="M13.518,10.482a.394.394,0,0,1-.1.262l-4.1,4.1a.389.389,0,0,1-.531,0,.384.384,0,0,1,0-.531l3.46-3.453H3.085a.375.375,0,0,1-.374-.374.37.37,0,0,1,.374-.374h9.163L8.72,6.58a.375.375,0,0,1,0-.523.37.37,0,0,1,.531,0l4.163,4.156a.4.4,0,0,1,.075.12c.007.022.015.052.022.075A.23.23,0,0,1,13.518,10.482Z" transform="translate(-2.711 -5.945)" stroke="#000" stroke-width="1"/>
      </g>
    </g>
    <g id="Group_86707" data-name="Group 86707" transform="translate(3741.468 -13125.691)">
      <path id="Path_73469" data-name="Path 73469" d="M18.374,16.16H11.6a.359.359,0,1,1,0-.718H18V3.187H11.6a.359.359,0,1,1,0-.718h6.773a.366.366,0,0,1,.374.359V15.8A.366.366,0,0,1,18.374,16.16Z" transform="translate(-11.227 -2.469)" stroke="#000" stroke-width="1"/>
    </g>
  </g>
</svg>
