<svg xmlns="http://www.w3.org/2000/svg" width="32" height="32" viewBox="0 0 32 32"><g transform="translate(-2.145 0)"><path d="M99.4,24.853v3.556h3.556V24.853Z" transform="translate(-68.813 -17.742)" fill="#f50002"/><path d="M99.4,24.853v3.556h3.556V24.853Z" transform="translate(-68.813 -14.187)" fill="#f50002"/><path d="M99.4,24.853v3.556h3.556V24.853Z" transform="translate(-68.813 -10.631)" fill="#f50002"/><path d="M99.4,24.853v3.556h3.556V24.853Z" transform="translate(-68.813 -7.076)" fill="#f50002"/><path d="M99.4,24.853v3.556h3.556V24.853Z" transform="translate(-68.813 -3.52)" fill="#f50002"/><rect width="3.556" height="3.556" transform="translate(27.033 3.555)" fill="#f50002"/><rect width="3.556" height="3.556" transform="translate(27.033 24.889)" fill="#f50002"/><path d="M49.7,28.567V36h3.556V24.853H49.7Z" transform="translate(-33.335 -18.218)" fill="#f50002"/><rect width="3.556" height="3.556" transform="translate(16.367 21.333)" fill="#f50002"/><path d="M24.854,0V3.555h3.556V0Z" transform="translate(-15.598)" fill="#f50002"/><path d="M24.854,0V3.555h3.556V0Z" transform="translate(-15.598 28.444)" fill="#f50002"/><path d="M24.854,0V3.555h3.556V0Z" transform="translate(-12.042)" fill="#f50002"/><path d="M24.854,0V3.555h3.556V0Z" transform="translate(-12.042 28.444)" fill="#f50002"/><path d="M24.854,0V3.555h3.556V0Z" transform="translate(-8.487)" fill="#f50002"/><path d="M24.854,0V3.555h3.556V0Z" transform="translate(-8.487 28.444)" fill="#f50002"/><path d="M24.854,0V3.555h3.556V0Z" transform="translate(-4.931)" fill="#f50002"/><path d="M24.854,0V3.555h3.556V0Z" transform="translate(-4.931 28.444)" fill="#f50002"/><path d="M24.854,0V3.555h3.556V0Z" transform="translate(-1.376)" fill="#f50002"/><path d="M24.854,0V3.555h3.556V0Z" transform="translate(-1.376 28.444)" fill="#f50002"/><rect width="3.556" height="3.556" transform="translate(5.7 3.555)" fill="#f50002"/><rect width="3.556" height="3.556" transform="translate(5.7 24.889)" fill="#f50002"/><path d="M0,24.853v3.556H3.556V24.853Z" transform="translate(2.145 -17.742)" fill="#f50002"/><path d="M0,24.853v3.556H3.556V24.853Z" transform="translate(2.145 -14.187)" fill="#f50002"/><path d="M0,24.853v3.556H3.556V24.853Z" transform="translate(2.145 -10.631)" fill="#f50002"/><path d="M0,24.853v3.556H3.556V24.853Z" transform="translate(2.145 -7.076)" fill="#f50002"/><path d="M0,24.853v3.556H3.556V24.853Z" transform="translate(2.145 -3.52)" fill="#f50002"/></g></svg>