<svg xmlns="http://www.w3.org/2000/svg" width="32" height="32" viewBox="0 0 32 32">
  <g id="video-pause-wh" transform="translate(24 24.061)">
    <g id="Group_96109" data-name="Group 96109" transform="translate(-24 -24)">
      <g id="video-pause-wh-2" data-name="video-pause-wh" transform="translate(1.346 1.003)">
        <g id="video-pause">
          <path id="Path_147216" data-name="Path 147216" d="M15.786,30.571A14.786,14.786,0,1,1,30.571,15.786,14.8,14.8,0,0,1,15.786,30.571Zm0-28.227A13.441,13.441,0,1,0,29.227,15.786,13.457,13.457,0,0,0,15.786,2.344Z" transform="translate(-1 -1)"/>
        </g>
        <g id="Group_96108" data-name="Group 96108" transform="translate(10.753 8.737)">
          <g id="Group_96106" data-name="Group 96106">
            <path id="Path_147217" data-name="Path 147217" d="M9.672,19.6A.672.672,0,0,1,9,18.925V8.172a.672.672,0,1,1,1.344,0V18.925A.672.672,0,0,1,9.672,19.6Z" transform="translate(-9 -7.5)"/>
          </g>
          <g id="Group_96107" data-name="Group 96107" transform="translate(6.721)">
            <path id="Path_147218" data-name="Path 147218" d="M14.672,19.6A.672.672,0,0,1,14,18.925V8.172a.672.672,0,1,1,1.344,0V18.925A.672.672,0,0,1,14.672,19.6Z" transform="translate(-14 -7.5)"/>
          </g>
        </g>
      </g>
      <rect id="Rectangle_31416" data-name="Rectangle 31416" width="32" height="32" transform="translate(0 -0.061)" fill="none"/>
    </g>
  </g>
</svg>
