<svg xmlns="http://www.w3.org/2000/svg" width="24" height="24" viewBox="0 0 24 24">
  <g id="Group_88333" data-name="Group 88333" transform="translate(2079 14906)">
    <rect id="Rectangle_26316" data-name="Rectangle 26316" width="24" height="24" transform="translate(-2079 -14906)" fill="#fff"/>
    <g id="Group_88330" data-name="Group 88330">
      <path id="Path_75145" data-name="Path 75145" d="M32.5,78a.5.5,0,0,0-1,0v9a.5.5,0,0,0,1,0Z" transform="translate(-2099 -14976.5)"/>
      <path id="Path_75146" data-name="Path 75146" d="M28.5,77.5a.5.5,0,0,1,.5.5v9a.5.5,0,0,1-1,0V78A.5.5,0,0,1,28.5,77.5Z" transform="translate(-2099 -14976.5)"/>
      <path id="Path_75147" data-name="Path 75147" d="M36,78a.5.5,0,0,0-1,0v9a.5.5,0,0,0,1,0Z" transform="translate(-2099 -14976.5)"/>
      <path id="Path_75148" data-name="Path 75148" d="M29,71.5A1.5,1.5,0,0,1,30.5,70h3A1.5,1.5,0,0,1,35,71.5V72h5a.5.5,0,0,1,.5.5v3a.5.5,0,0,1-.5.5h-.518L39.1,86.625A3.5,3.5,0,0,1,35.605,90h-7.21a3.5,3.5,0,0,1-3.5-3.375L24.517,76H24a.5.5,0,0,1-.5-.5v-3A.5.5,0,0,1,24,72h5Zm5,0V72H30v-.5a.5.5,0,0,1,.5-.5h3A.5.5,0,0,1,34,71.5ZM24.5,73v2h15V73Zm1.018,3L25.9,86.589A2.5,2.5,0,0,0,28.395,89h7.21a2.5,2.5,0,0,0,2.5-2.411L38.482,76Z" transform="translate(-2099 -14974)" fill-rule="evenodd"/>
    </g>
  </g>
</svg>
