<?xml version="1.0" encoding="utf-8"?>
<!-- Generator: Adobe Illustrator 27.2.0, SVG Export Plug-In . SVG Version: 6.00 Build 0)  -->
<svg version="1.1" id="Layer_1" xmlns="http://www.w3.org/2000/svg" xmlns:xlink="http://www.w3.org/1999/xlink" x="0px" y="0px"
	 viewBox="0 0 53 53" style="enable-background:new 0 0 53 53;" xml:space="preserve">
<style type="text/css">
	.st0{fill:#2A62F5;}
	.st1{fill-rule:evenodd;clip-rule:evenodd;fill:#FFFFFF;}
</style>
<g id="icon_coinbase" transform="translate(-3 -3)">
	<path id="Path_71622" class="st0" d="M29.4,54c13.9,0,25.2-11.1,25.2-24.8S43.3,4.4,29.4,4.4S4.2,15.5,4.2,29.2S15.5,54,29.4,54z"
		/>
	<path id="Path_71623" class="st1" d="M29.4,44.6C38,44.6,45,37.7,45,29.2s-7-15.4-15.6-15.4s-15.6,6.9-15.6,15.4
		C13.8,37.7,20.8,44.6,29.4,44.6L29.4,44.6z M26,24.7c-0.6,0-1.2,0.5-1.2,1.2v6.7c0,0.6,0.5,1.2,1.2,1.2l0,0h6.8
		c0.6,0,1.2-0.5,1.2-1.2c0,0,0,0,0,0v-6.7c0-0.6-0.5-1.2-1.2-1.2l0,0L26,24.7z"/>
</g>
</svg>
