<?xml version="1.0" encoding="utf-8"?>
<!-- Generator: Adobe Illustrator 27.2.0, SVG Export Plug-In . SVG Version: 6.00 Build 0)  -->
<svg version="1.1" id="Layer_1" xmlns="http://www.w3.org/2000/svg" xmlns:xlink="http://www.w3.org/1999/xlink" x="0px" y="0px"
	 viewBox="0 0 53 53" style="enable-background:new 0 0 53 53;" xml:space="preserve">
<style type="text/css">
	.st0{fill:#6851FF;}
</style>
<g>
	<g>
		<g id="Group_85423">
			<path id="Path_71548" class="st0" d="M26.5,4.5c2,2.3,4.2,4.5,6.5,6.4c-3.2,10-3.2,20.7,0,30.7c-2.4,1.9-4.5,4.1-6.5,6.4
				c-2-2.3-4.2-4.4-6.5-6.4c1.6-4.9,2.4-10.1,2.4-15.3S21.6,15.9,20,11C22.3,8.9,24.5,6.8,26.5,4.5L26.5,4.5z"/>
			<path id="Path_71549" class="st0" d="M15.5,38.2c-2.5-1.7-5.2-3.2-8-4.4c1.6-4.9,1.6-10.2,0-15.2c2.8-1.2,5.4-2.7,8-4.4
				c1,3.9,1.5,7.9,1.5,12C16.9,30.3,16.4,34.3,15.5,38.2z"/>
			<path id="Path_71550" class="st0" d="M36.5,26.2c0,4,0.5,8.1,1.5,12c2.5-1.7,5.2-3.2,7.9-4.4c-1.6-4.9-1.6-10.2,0-15.2
				c-2.8-1.2-5.4-2.7-8-4.4C37,18.2,36.5,22.2,36.5,26.2z"/>
		</g>
	</g>
</g>
</svg>
