<svg xmlns="http://www.w3.org/2000/svg" width="51" height="31" viewBox="0 0 51 31">
  <g id="Group_88265" data-name="Group 88265" transform="translate(-880 -141.5)">
    <path id="Path_74451" data-name="Path 74451" d="M895.857,141.592c1.74-.1,3.478-.092,5.218-.092h8.817c1.774,0,3.512-.008,5.251.092a21.646,21.646,0,0,1,4.654.711,15.242,15.242,0,0,1,0,29.394,21.708,21.708,0,0,1-4.654.711c-1.739.1-3.477.091-5.217.091h-8.819c-1.772,0-3.51.008-5.25-.092a21.708,21.708,0,0,1-4.653-.711,15.242,15.242,0,0,1,0-29.394A21.646,21.646,0,0,1,895.857,141.592Z" fill="silver" fill-rule="evenodd"/>
    <g id="Group_87505" data-name="Group 87505">
      <path id="Path_74452" data-name="Path 74452" d="M895.5,170.5A13.5,13.5,0,1,0,882,157,13.5,13.5,0,0,0,895.5,170.5Z" fill="#fff" fill-rule="evenodd"/>
      <path id="Path_74453" data-name="Path 74453" d="M895.5,170.75A13.75,13.75,0,1,0,881.75,157,13.75,13.75,0,0,0,895.5,170.75Z" fill="none" stroke="rgba(0,0,0,0.04)" stroke-width="0.5"/>
    </g>
  </g>
</svg>
