<svg xmlns="http://www.w3.org/2000/svg" width="15" height="14.692" viewBox="0 0 15 14.692">
  <g id="Group_86706" data-name="Group 86706" transform="translate(-834.729 -625.954)">
    <g id="Group_86706-2" data-name="Group 86706" transform="translate(838.421 628.777)">
      <g id="Group_86576" data-name="Group 86576" transform="translate(0 0)">
        <path id="Path_73468" data-name="Path 73468" d="M13.518,10.482a.394.394,0,0,1-.1.262l-4.1,4.1a.389.389,0,0,1-.531,0,.384.384,0,0,1,0-.531l3.46-3.453H3.085a.375.375,0,0,1-.374-.374.37.37,0,0,1,.374-.374h9.163L8.72,6.58a.375.375,0,0,1,0-.523.37.37,0,0,1,.531,0l4.163,4.156a.4.4,0,0,1,.075.12c.007.022.015.052.022.075A.23.23,0,0,1,13.518,10.482Z" transform="translate(-2.711 -5.945)" stroke="#000" stroke-width="1"/>
      </g>
    </g>
    <g id="Group_86707" data-name="Group 86707" transform="translate(835.229 626.454)">
      <path id="Path_73469" data-name="Path 73469" d="M11.6,16.161h6.773a.359.359,0,1,0,0-.718h-6.4V3.187h6.4a.359.359,0,1,0,0-.718H11.6a.366.366,0,0,0-.374.359V15.8A.366.366,0,0,0,11.6,16.161Z" transform="translate(-11.227 -2.469)" stroke="#000" stroke-width="1"/>
    </g>
  </g>
</svg>
