<svg id="Group_88902" data-name="Group 88902" xmlns="http://www.w3.org/2000/svg" width="21" height="19.138" viewBox="0 0 21 19.138">
  <rect id="Rectangle_28161" data-name="Rectangle 28161" width="1.709" height="1.709" transform="translate(21 3.41) rotate(90)"/>
  <rect id="Rectangle_28162" data-name="Rectangle 28162" width="1.709" height="1.709" transform="translate(19.302 3.41) rotate(90)"/>
  <rect id="Rectangle_28163" data-name="Rectangle 28163" width="1.709" height="1.709" transform="translate(11.448 5.297) rotate(90)"/>
  <rect id="Rectangle_28164" data-name="Rectangle 28164" width="1.709" height="1.709" transform="translate(9.74 7.006) rotate(90)"/>
  <rect id="Rectangle_28165" data-name="Rectangle 28165" width="1.709" height="1.709" transform="translate(8.031 8.715) rotate(90)"/>
  <rect id="Rectangle_28166" data-name="Rectangle 28166" width="1.709" height="1.709" transform="translate(6.322 10.423) rotate(90)"/>
  <rect id="Rectangle_28167" data-name="Rectangle 28167" width="1.709" height="1.709" transform="translate(17.6 3.418) rotate(90)"/>
  <rect id="Rectangle_28168" data-name="Rectangle 28168" width="1.709" height="4.614" transform="translate(16.062 3.589) rotate(90)"/>
  <rect id="Rectangle_28169" data-name="Rectangle 28169" width="1.709" height="4.614" transform="translate(4.614 12.132) rotate(90)"/>
  <rect id="Rectangle_28170" data-name="Rectangle 28170" width="1.709" height="1.709" transform="translate(19.308 1.709) rotate(90)"/>
  <rect id="Rectangle_28171" data-name="Rectangle 28171" width="1.709" height="1.709" transform="translate(17.6 1.709) rotate(90)"/>
  <rect id="Rectangle_28172" data-name="Rectangle 28172" width="1.709" height="1.709" transform="translate(17.6) rotate(90)"/>
  <rect id="Rectangle_28173" data-name="Rectangle 28173" width="1.709" height="1.709" transform="translate(19.286 5.106) rotate(90)"/>
  <rect id="Rectangle_28174" data-name="Rectangle 28174" width="1.709" height="1.709" transform="translate(17.589 5.106) rotate(90)"/>
  <rect id="Rectangle_28175" data-name="Rectangle 28175" width="1.709" height="1.709" transform="translate(17.589 6.804) rotate(90)"/>
  <rect id="Rectangle_28176" data-name="Rectangle 28176" width="1.709" height="1.709" transform="translate(19.291 15.728) rotate(-90)"/>
  <rect id="Rectangle_28177" data-name="Rectangle 28177" width="1.709" height="1.709" transform="translate(17.594 15.728) rotate(-90)"/>
  <rect id="Rectangle_28178" data-name="Rectangle 28178" width="1.709" height="1.709" transform="translate(9.739 13.841) rotate(-90)"/>
  <rect id="Rectangle_28179" data-name="Rectangle 28179" width="1.709" height="1.709" transform="translate(8.031 12.132) rotate(-90)"/>
  <rect id="Rectangle_28180" data-name="Rectangle 28180" width="1.709" height="1.709" transform="translate(6.322 10.423) rotate(-90)"/>
  <rect id="Rectangle_28181" data-name="Rectangle 28181" width="1.709" height="1.709" transform="translate(4.613 8.715) rotate(-90)"/>
  <rect id="Rectangle_28182" data-name="Rectangle 28182" width="1.709" height="1.709" transform="translate(15.891 15.72) rotate(-90)"/>
  <rect id="Rectangle_28183" data-name="Rectangle 28183" width="1.709" height="4.614" transform="translate(11.448 15.55) rotate(-90)"/>
  <rect id="Rectangle_28184" data-name="Rectangle 28184" width="1.709" height="4.614" transform="translate(0 7.006) rotate(-90)"/>
  <rect id="Rectangle_28185" data-name="Rectangle 28185" width="1.709" height="1.709" transform="translate(17.599 17.429) rotate(-90)"/>
  <rect id="Rectangle_28186" data-name="Rectangle 28186" width="1.709" height="1.709" transform="translate(15.891 17.429) rotate(-90)"/>
  <rect id="Rectangle_28187" data-name="Rectangle 28187" width="1.709" height="1.709" transform="translate(15.891 19.138) rotate(-90)"/>
  <rect id="Rectangle_28188" data-name="Rectangle 28188" width="1.709" height="1.709" transform="translate(17.577 14.03) rotate(-90)"/>
  <rect id="Rectangle_28189" data-name="Rectangle 28189" width="1.709" height="1.709" transform="translate(15.881 14.03) rotate(-90)"/>
  <rect id="Rectangle_28190" data-name="Rectangle 28190" width="1.709" height="1.709" transform="translate(15.881 12.334) rotate(-90)"/>
  <rect id="Rectangle_28256" data-name="Rectangle 28256" width="1.709" height="1.709" transform="translate(21 3.41) rotate(90)"/>
  <rect id="Rectangle_28257" data-name="Rectangle 28257" width="1.709" height="1.709" transform="translate(19.302 3.41) rotate(90)"/>
  <rect id="Rectangle_28258" data-name="Rectangle 28258" width="1.709" height="1.709" transform="translate(11.448 5.297) rotate(90)"/>
  <rect id="Rectangle_28259" data-name="Rectangle 28259" width="1.709" height="1.709" transform="translate(9.74 7.006) rotate(90)"/>
  <rect id="Rectangle_28260" data-name="Rectangle 28260" width="1.709" height="1.709" transform="translate(8.031 8.715) rotate(90)"/>
  <rect id="Rectangle_28261" data-name="Rectangle 28261" width="1.709" height="1.709" transform="translate(6.322 10.423) rotate(90)"/>
  <rect id="Rectangle_28262" data-name="Rectangle 28262" width="1.709" height="1.709" transform="translate(17.6 3.418) rotate(90)"/>
  <rect id="Rectangle_28263" data-name="Rectangle 28263" width="1.709" height="4.614" transform="translate(16.062 3.589) rotate(90)"/>
  <rect id="Rectangle_28264" data-name="Rectangle 28264" width="1.709" height="4.614" transform="translate(4.614 12.132) rotate(90)"/>
  <rect id="Rectangle_28265" data-name="Rectangle 28265" width="1.709" height="1.709" transform="translate(19.308 1.709) rotate(90)"/>
  <rect id="Rectangle_28266" data-name="Rectangle 28266" width="1.709" height="1.709" transform="translate(17.6 1.709) rotate(90)"/>
  <rect id="Rectangle_28267" data-name="Rectangle 28267" width="1.709" height="1.709" transform="translate(17.6) rotate(90)"/>
  <rect id="Rectangle_28268" data-name="Rectangle 28268" width="1.709" height="1.709" transform="translate(19.286 5.106) rotate(90)"/>
  <rect id="Rectangle_28269" data-name="Rectangle 28269" width="1.709" height="1.709" transform="translate(17.589 5.106) rotate(90)"/>
  <rect id="Rectangle_28270" data-name="Rectangle 28270" width="1.709" height="1.709" transform="translate(17.589 6.804) rotate(90)"/>
  <rect id="Rectangle_28271" data-name="Rectangle 28271" width="1.709" height="1.709" transform="translate(19.291 15.728) rotate(-90)"/>
  <rect id="Rectangle_28272" data-name="Rectangle 28272" width="1.709" height="1.709" transform="translate(17.594 15.728) rotate(-90)"/>
  <rect id="Rectangle_28273" data-name="Rectangle 28273" width="1.709" height="1.709" transform="translate(9.739 13.841) rotate(-90)"/>
  <rect id="Rectangle_28274" data-name="Rectangle 28274" width="1.709" height="1.709" transform="translate(8.031 12.132) rotate(-90)"/>
  <rect id="Rectangle_28275" data-name="Rectangle 28275" width="1.709" height="1.709" transform="translate(6.322 10.423) rotate(-90)"/>
  <rect id="Rectangle_28276" data-name="Rectangle 28276" width="1.709" height="1.709" transform="translate(4.613 8.715) rotate(-90)"/>
  <rect id="Rectangle_28277" data-name="Rectangle 28277" width="1.709" height="1.709" transform="translate(15.891 15.72) rotate(-90)"/>
  <rect id="Rectangle_28278" data-name="Rectangle 28278" width="1.709" height="4.614" transform="translate(11.448 15.55) rotate(-90)"/>
  <rect id="Rectangle_28279" data-name="Rectangle 28279" width="1.709" height="4.614" transform="translate(0 7.006) rotate(-90)"/>
  <rect id="Rectangle_28280" data-name="Rectangle 28280" width="1.709" height="1.709" transform="translate(17.599 17.429) rotate(-90)"/>
  <rect id="Rectangle_28281" data-name="Rectangle 28281" width="1.709" height="1.709" transform="translate(15.891 17.429) rotate(-90)"/>
  <rect id="Rectangle_28282" data-name="Rectangle 28282" width="1.709" height="1.709" transform="translate(15.891 19.138) rotate(-90)"/>
  <rect id="Rectangle_28283" data-name="Rectangle 28283" width="1.709" height="1.709" transform="translate(17.577 14.03) rotate(-90)"/>
  <rect id="Rectangle_28284" data-name="Rectangle 28284" width="1.709" height="1.709" transform="translate(15.881 14.03) rotate(-90)"/>
  <rect id="Rectangle_28285" data-name="Rectangle 28285" width="1.709" height="1.709" transform="translate(15.881 12.334) rotate(-90)"/>
</svg>
