<svg xmlns="http://www.w3.org/2000/svg" width="32" height="32" viewBox="0 0 32 32">
  <g id="Group_100315" data-name="Group 100315" transform="translate(-1318 -200)">
    <circle id="Ellipse_6140" data-name="Ellipse 6140" cx="16" cy="16" r="16" transform="translate(1318 200)" fill="#fff"/>
    <circle id="Ellipse_6139" data-name="Ellipse 6139" cx="4.5" cy="4.5" r="4.5" transform="translate(1330 206)"/>
    <path id="Subtraction_4" data-name="Subtraction 4" d="M17,9H0V8.989c0-.045,0-.086,0-.126a9.135,9.135,0,0,1,.668-3.45A8.862,8.862,0,0,1,2.49,2.6,8.459,8.459,0,0,1,5.191.7a8.209,8.209,0,0,1,6.617,0,8.461,8.461,0,0,1,2.7,1.9,8.856,8.856,0,0,1,1.822,2.818A9.129,9.129,0,0,1,17,8.864c0,.04,0,.083,0,.136Z" transform="translate(1326 215)"/>
  </g>
</svg>
