<?xml version="1.0" encoding="utf-8"?>
<!-- Generator: Adobe Illustrator 27.2.0, SVG Export Plug-In . SVG Version: 6.00 Build 0)  -->
<svg version="1.1" id="Layer_1" xmlns="http://www.w3.org/2000/svg" xmlns:xlink="http://www.w3.org/1999/xlink" x="0px" y="0px"
	 viewBox="0 0 52.9 52.9" style="enable-background:new 0 0 52.9 52.9;" xml:space="preserve">
<style type="text/css">
	.st0{fill:#E2761B;stroke:#E2761B;stroke-width:0.1;stroke-linecap:round;stroke-linejoin:round;}
	.st1{fill:#E4761B;stroke:#E4761B;stroke-width:0.1;stroke-linecap:round;stroke-linejoin:round;}
	.st2{fill:#D7C1B3;stroke:#D7C1B3;stroke-width:0.1;stroke-linecap:round;stroke-linejoin:round;}
	.st3{fill:#233447;stroke:#233447;stroke-width:0.1;stroke-linecap:round;stroke-linejoin:round;}
	.st4{fill:#CD6116;stroke:#CD6116;stroke-width:0.1;stroke-linecap:round;stroke-linejoin:round;}
	.st5{fill:#E4751F;stroke:#E4751F;stroke-width:0.1;stroke-linecap:round;stroke-linejoin:round;}
	.st6{fill:#F6851B;stroke:#F6851B;stroke-width:0.1;stroke-linecap:round;stroke-linejoin:round;}
	.st7{fill:#C0AD9E;stroke:#C0AD9E;stroke-width:0.1;stroke-linecap:round;stroke-linejoin:round;}
	.st8{fill:#161616;stroke:#161616;stroke-width:0.1;stroke-linecap:round;stroke-linejoin:round;}
	.st9{fill:#763D16;stroke:#763D16;stroke-width:0.1;stroke-linecap:round;stroke-linejoin:round;}
</style>
<g>
	<g>
		<g id="Group_85421">
			<path id="Path_71497" class="st0" d="M44.1,8L28.5,19.5l2.9-6.8L44.1,8z"/>
			<path id="Path_71498" class="st1" d="M8,8l15.5,11.7l-2.7-6.9C20.8,12.7,8,8,8,8z"/>
			<path id="Path_71499" class="st1" d="M38.5,34.8l-4.2,6.4l8.9,2.4l2.6-8.7L38.5,34.8L38.5,34.8z"/>
			<path id="Path_71500" class="st1" d="M6.4,35l2.5,8.7l8.9-2.4l-4.2-6.4C13.7,34.8,6.4,35,6.4,35z"/>
			<path id="Path_71501" class="st1" d="M17.3,24.1l-2.5,3.8l8.8,0.4l-0.3-9.5L17.3,24.1z"/>
			<path id="Path_71502" class="st1" d="M34.8,24.1l-6.1-5.5l-0.2,9.6l8.8-0.4C37.3,27.8,34.8,24.1,34.8,24.1z"/>
			<path id="Path_71503" class="st1" d="M17.8,41.2l5.3-2.6L18.6,35L17.8,41.2L17.8,41.2z"/>
			<path id="Path_71504" class="st1" d="M29,38.6l5.3,2.6L33.6,35L29,38.6L29,38.6z"/>
			<path id="Path_71505" class="st2" d="M34.3,41.2L29,38.6l0.4,3.5v1.5L34.3,41.2L34.3,41.2z"/>
			<path id="Path_71506" class="st2" d="M17.8,41.2l4.9,2.3V42l0.4-3.5C23.1,38.6,17.8,41.2,17.8,41.2z"/>
			<path id="Path_71507" class="st3" d="M22.9,32.7l-4.4-1.3l3.1-1.4L22.9,32.7z"/>
			<path id="Path_71508" class="st3" d="M29.3,32.7l1.3-2.7l3.1,1.4L29.3,32.7z"/>
			<path id="Path_71509" class="st4" d="M17.8,41.2l0.8-6.4L13.7,35L17.8,41.2z"/>
			<path id="Path_71510" class="st4" d="M33.6,34.8l0.8,6.4l4.2-6.2L33.6,34.8z"/>
			<path id="Path_71511" class="st4" d="M37.3,27.8l-8.8,0.4l0.8,4.5l1.3-2.7l3.1,1.4L37.3,27.8z"/>
			<path id="Path_71512" class="st4" d="M18.4,31.5l3.1-1.4l1.3,2.7l0.8-4.5l-8.8-0.4L18.4,31.5L18.4,31.5z"/>
			<path id="Path_71513" class="st5" d="M14.8,27.8l3.7,7.2l-0.1-3.6L14.8,27.8L14.8,27.8z"/>
			<path id="Path_71514" class="st5" d="M33.7,31.5L33.6,35l3.7-7.2L33.7,31.5L33.7,31.5z"/>
			<path id="Path_71515" class="st5" d="M23.7,28.2l-0.8,4.5l1,5.4l0.2-7L23.7,28.2z"/>
			<path id="Path_71516" class="st5" d="M28.5,28.2L28,31l0.2,7.1l1-5.3L28.5,28.2L28.5,28.2z"/>
			<path id="Path_71517" class="st6" d="M29.3,32.7l-1,5.3l0.8,0.5l4.6-3.6l0.2-3.6C33.7,31.4,29.3,32.7,29.3,32.7z"/>
			<path id="Path_71518" class="st6" d="M18.4,31.4l0.1,3.6l4.6,3.6l0.8-0.5l-1-5.3L18.4,31.4L18.4,31.4z"/>
			<path id="Path_71519" class="st7" d="M29.4,43.5V42L29,41.7h-5.9L22.7,42v1.5l-4.9-2.3l1.7,1.4l3.6,2.4h6l3.5-2.4l1.7-1.4
				L29.4,43.5L29.4,43.5z"/>
			<path id="Path_71520" class="st8" d="M29,38.6l-0.8-0.5h-4.3l-0.8,0.5l-0.4,3.5l0.4-0.3H29l0.4,0.3C29.4,42.1,29,38.6,29,38.6z"
				/>
			<path id="Path_71521" class="st9" d="M44.7,20.3l1.3-6.4l-2-6L29,19.2l5.8,4.9l8.2,2.4l1.8-2.1L44,23.8l1.2-1.2l-1-0.8l1.2-1
				L44.7,20.3L44.7,20.3z"/>
			<path id="Path_71522" class="st9" d="M6.1,13.9l1.3,6.4l-0.9,0.6l1.2,1l-1,0.8l1.2,1.2l-0.8,0.6l1.8,2.1l8.2-2.4l5.8-4.9L8,8
				L6.1,13.9L6.1,13.9z"/>
			<path id="Path_71523" class="st6" d="M43,26.5l-8.2-2.4l2.5,3.8L33.6,35l4.9-0.1h7.3L43,26.5L43,26.5z"/>
			<path id="Path_71524" class="st6" d="M17.3,24.1l-8.2,2.4L6.4,35h7.3l4.9,0.1l-3.7-7.2L17.3,24.1L17.3,24.1z"/>
			<path id="Path_71525" class="st6" d="M28.5,28.2l0.5-9.1l2.4-6.4H20.8l2.3,6.4l0.5,9.1l0.2,2.8v7h4.3v-7L28.5,28.2z"/>
		</g>
	</g>
</g>
</svg>
