<svg xmlns="http://www.w3.org/2000/svg" width="24" height="18.182" viewBox="0 0 24 18.182">
  <path id="discord" d="M20.675,2.016A11.35,11.35,0,0,0,15.172,0a.519.519,0,0,0-.517.314A4.2,4.2,0,0,0,14.5.761a12.593,12.593,0,0,1,4.588,1.687.544.544,0,0,1,.168.737.518.518,0,0,1-.444.253.51.51,0,0,1-.275-.08,13.06,13.06,0,0,0-13.068,0,.515.515,0,0,1-.719-.172.543.543,0,0,1,.168-.737A12.606,12.606,0,0,1,9.5.761C9.423.5,9.351.329,9.346.316A.515.515,0,0,0,8.828,0,11.352,11.352,0,0,0,3.3,2.04C2.2,3.081,0,9.172,0,14.438a.547.547,0,0,0,.069.265c1.517,2.731,5.656,3.447,6.6,3.478h.016a.518.518,0,0,0,.422-.22l.955-1.344A10.084,10.084,0,0,1,4.1,14.71a.544.544,0,0,1-.046-.755.512.512,0,0,1,.735-.048c.032.029,2.452,2.134,7.213,2.134s7.19-2.114,7.214-2.136a.514.514,0,0,1,.735.05.543.543,0,0,1-.046.752,10.068,10.068,0,0,1-3.964,1.907l.955,1.344a.518.518,0,0,0,.422.22h.016c.944-.03,5.083-.746,6.6-3.478A.554.554,0,0,0,24,14.438C24,9.172,21.8,3.081,20.675,2.016ZM8.608,12.3a2,2,0,0,1-1.826-2.139A2,2,0,0,1,8.608,8.022a2,2,0,0,1,1.826,2.139A2,2,0,0,1,8.608,12.3Zm6.783,0a2,2,0,0,1-1.826-2.139,2,2,0,0,1,1.826-2.139,2,2,0,0,1,1.826,2.139A2,2,0,0,1,15.392,12.3Z"/>
</svg>
