<svg xmlns="http://www.w3.org/2000/svg" xmlns:xlink="http://www.w3.org/1999/xlink" width="47.061" height="44.368" viewBox="0 0 47.061 44.368">
  <defs>
    <clipPath id="clip-path">
      <rect id="Rectangle_27034" data-name="Rectangle 27034" width="47.061" height="44.368" fill="none"/>
    </clipPath>
  </defs>
  <g id="Group_88622" data-name="Group 88622" transform="translate(0 48.509)">
    <g id="Group_88619" data-name="Group 88619" transform="translate(0 -48.509)" clip-path="url(#clip-path)">
      <path id="Path_75221" data-name="Path 75221" d="M21.816,3.006,1.886,39.725a3.016,3.016,0,0,0,2.452,4.518H44.2a3.016,3.016,0,0,0,2.452-4.518L26.72,3.006a2.75,2.75,0,0,0-4.9,0" transform="translate(-0.738 -0.687)" fill="#ffb7fc"/>
      <path id="Path_75222" data-name="Path 75222" d="M43.46,44.368H3.6A3.525,3.525,0,0,1,.488,42.455a3.992,3.992,0,0,1,0-3.824L20.417,1.912a3.491,3.491,0,0,1,6.227,0L46.573,38.631a3.993,3.993,0,0,1,0,3.824,3.526,3.526,0,0,1-3.113,1.913M23.53,1.625a2.028,2.028,0,0,0-1.791,1.1L1.811,39.444a2.294,2.294,0,0,0,0,2.2,2.028,2.028,0,0,0,1.79,1.1H43.46a2.029,2.029,0,0,0,1.79-1.1,2.3,2.3,0,0,0,0-2.2L25.321,2.724a2.027,2.027,0,0,0-1.79-1.1m-2.452.693h0Z" transform="translate(0)" fill="#1c1630"/>
      <path id="Path_75223" data-name="Path 75223" d="M43.742,42.943h1.2a1.21,1.21,0,0,1,.9.4,1.311,1.311,0,0,1,.381.939v1.177a1.332,1.332,0,0,1-.366.946,1.175,1.175,0,0,1-.89.391H43.712a1.174,1.174,0,0,1-.89-.391,1.33,1.33,0,0,1-.366-.946V44.311a1.43,1.43,0,0,1,.389-.962,1.178,1.178,0,0,1,.9-.406m2.513-15.893-.613,10.357a1.522,1.522,0,0,1-.4.954,1.131,1.131,0,0,1-.852.382,1.154,1.154,0,0,1-.905-.4,1.5,1.5,0,0,1-.381-.939l-.613-10.389a1.281,1.281,0,0,1,1.256-1.336H45a1.182,1.182,0,0,1,.9.422,1.261,1.261,0,0,1,.351.946" transform="translate(-20.838 -11.771)" fill="#1c1630"/>
    </g>
  </g>
</svg>
